<svg width="100" height="100" viewBox="0 0 100 100" fill="none" xmlns="http://www.w3.org/2000/svg">
<g filter="url(#filter0_b_44_4)">
<circle cx="50" cy="50" r="50" fill="#A8B2D1" fill-opacity="0.8"/>
</g>
<path d="M34.3448 52.6465L32.5652 50.8668C31.8116 50.1133 31.8116 48.8948 32.5652 48.1492L48.1412 32.5652C48.8948 31.8116 50.1133 31.8116 50.8588 32.5652L66.4348 48.1412C67.1884 48.8948 67.1884 50.1133 66.4348 50.8588L64.6552 52.6385C63.8936 53.4 62.6511 53.384 61.9055 52.6064L52.7106 42.9545V65.9939C52.7106 67.0601 51.8528 67.9179 50.7866 67.9179H48.2214C47.1552 67.9179 46.2974 67.0601 46.2974 65.9939V42.9545L37.0945 52.6144C36.3489 53.4 35.1064 53.4161 34.3448 52.6465Z" fill="#020C1B"/>
<defs>
<filter id="filter0_b_44_4" x="-7" y="-7" width="114" height="114" filterUnits="userSpaceOnUse" color-interpolation-filters="sRGB">
<feFlood flood-opacity="0" result="BackgroundImageFix"/>
<feGaussianBlur in="BackgroundImageFix" stdDeviation="3.5"/>
<feComposite in2="SourceAlpha" operator="in" result="effect1_backgroundBlur_44_4"/>
<feBlend mode="normal" in="SourceGraphic" in2="effect1_backgroundBlur_44_4" result="shape"/>
</filter>
</defs>
</svg>
